<?xml version="1.0" encoding="utf-8"?>
<!-- Generator: Adobe Illustrator 14.0.0, SVG Export Plug-In . SVG Version: 6.00 Build 43363)  -->
<!DOCTYPE svg PUBLIC "-//W3C//DTD SVG 1.1//EN" "http://www.w3.org/Graphics/SVG/1.1/DTD/svg11.dtd">
<svg version="1.1" id="Layer_1" xmlns="http://www.w3.org/2000/svg" xmlns:xlink="http://www.w3.org/1999/xlink" x="0px" y="0px"
	 width="232.44px" height="311.811px" viewBox="0 0 232.44 311.811" enable-background="new 0 0 232.44 311.811"
	 xml:space="preserve">
<path fill="#FFFFFF" d="M199.234,39.685H33.206C14.865,39.685,0,54.55,0,72.89V238.92c0,18.341,14.865,33.205,33.206,33.205h166.029
	c18.341,0,33.206-14.864,33.206-33.205V72.89C232.44,54.55,217.575,39.685,199.234,39.685z M66.412,222.316
	c-9.168,0-16.603-7.435-16.603-16.603s7.435-16.603,16.603-16.603c9.167,0,16.603,7.435,16.603,16.603
	S75.579,222.316,66.412,222.316z M66.412,122.699c-9.168,0-16.603-7.435-16.603-16.603s7.435-16.603,16.603-16.603
	c9.167,0,16.603,7.435,16.603,16.603S75.579,122.699,66.412,122.699z M166.028,222.316c-9.168,0-16.603-7.435-16.603-16.603
	s7.435-16.603,16.603-16.603s16.604,7.435,16.604,16.603S175.196,222.316,166.028,222.316z M166.028,122.699
	c-9.168,0-16.603-7.435-16.603-16.603s7.435-16.603,16.603-16.603s16.604,7.435,16.604,16.603S175.196,122.699,166.028,122.699z"/>
</svg>
